<?xml version="1.0" ?><svg data-name="Layer 1" height="24" id="Layer_1" viewBox="0 0 24 24" width="24" xmlns="http://www.w3.org/2000/svg"><title/><path d="M19.5,19H17V11.90045a.06692.06692,0,0,0-.13141-.01965,3.00117,3.00117,0,0,1-3.02991,2.11493A3.11444,3.11444,0,0,1,11,10.83026V10a7,7,0,0,0-7,7v1a4,4,0,0,0,4,4h3.579A.99523.99523,0,0,1,11,21.1V20h2v1.1a.99523.99523,0,0,1-.579.9H15.579A.99523.99523,0,0,1,15,21.1V20h2v1.1a.99523.99523,0,0,1-.579.9H19.5a1.5,1.5,0,0,0,0-3Z"/><path d="M13,4,10,6V2.20711a.5.5,0,0,1,.85355-.35355Z"/><path d="M15,4l3,2V2.20711a.5.5,0,0,0-.85355-.35355Z"/><path d="M17,4H10V7a4,4,0,0,0,8,0V4ZM12.25,7.5A.75.75,0,1,1,13,6.75.75.75,0,0,1,12.25,7.5ZM16,7.5a.75.75,0,1,1,.75-.75A.75.75,0,0,1,16,7.5Z"/></svg>